<?xml version="1.0" encoding="UTF-8" standalone="no"?>
<svg viewBox="0 0 50 50"
 xmlns="http://www.w3.org/2000/svg" xmlns:xlink="http://www.w3.org/1999/xlink" version="1.2" baseProfile="tiny">
<title>Qt SVG Document</title>
<desc>Generated with Qt</desc>
<defs>
</defs>
<g fill="none" stroke="black" stroke-width="1" fill-rule="evenodd" stroke-linecap="square" stroke-linejoin="bevel" >

<g fill="#14a782" fill-opacity="1" stroke="none" transform="matrix(0.0548336,0,0,-0.0548338,-0.327859,50.114)"
font-family="Inter" font-size="10" font-weight="400" font-style="normal" 
>
<path vector-effect="none" fill-rule="evenodd" d="M461.904,2.07917 C713.705,2.07917 917.829,206.204 917.829,458.004 C917.829,709.801 713.705,913.925 461.904,913.925 C210.105,913.925 5.97917,709.801 5.97917,458.004 C5.97917,206.204 210.105,2.07917 461.904,2.07917 "/>
</g>

<g fill="#18c39b" fill-opacity="1" stroke="none" transform="matrix(0.0548336,0,0,-0.0548338,-0.327859,50.114)"
font-family="Inter" font-size="10" font-weight="400" font-style="normal" 
>
<path vector-effect="none" fill-rule="evenodd" d="M461.904,40.8542 C692.288,40.8542 879.05,227.617 879.05,458.004 C879.05,688.387 692.288,875.15 461.904,875.15 C231.521,875.15 44.7541,688.387 44.7541,458.004 C44.7541,227.617 231.521,40.8542 461.904,40.8542 "/>
</g>

<g fill="#fefefe" fill-opacity="1" stroke="none" transform="matrix(0.0548336,0,0,0.0548338,-0.327859,50.114)"
font-family="Inter" font-size="10" font-weight="400" font-style="normal" 
>
<path vector-effect="none" fill-rule="evenodd" d="M157.197,-469.325 C157.197,-495.406 178.339,-516.548 204.42,-516.548 L719.38,-516.548 C745.46,-516.548 766.603,-495.406 766.603,-469.325 L766.603,-469.325 C766.603,-443.245 745.46,-422.102 719.38,-422.102 L204.42,-422.102 C178.339,-422.102 157.197,-443.245 157.197,-469.325 L157.197,-469.325"/>
</g>

<g fill="none" stroke="#000000" stroke-opacity="1" stroke-width="1" stroke-linecap="square" stroke-linejoin="bevel" transform="matrix(1,0,0,1,0,0)"
font-family="Inter" font-size="10" font-weight="400" font-style="normal" 
>
</g>
</g>
</svg>
