<?xml version="1.0" encoding="UTF-8" standalone="no"?>
<svg viewBox="0 0 50 50"
 xmlns="http://www.w3.org/2000/svg" xmlns:xlink="http://www.w3.org/1999/xlink" version="1.2" baseProfile="tiny">
<title>Qt SVG Document</title>
<desc>Generated with Qt</desc>
<defs>
</defs>
<g fill="none" stroke="black" stroke-width="1" fill-rule="evenodd" stroke-linecap="square" stroke-linejoin="bevel" >

<g fill="#14a782" fill-opacity="1" stroke="none" transform="matrix(0.0548333,0,0,-0.0548338,-0.491443,50.5641)"
font-family="Inter" font-size="10" font-weight="400" font-style="normal" 
>
<path vector-effect="none" fill-rule="evenodd" d="M464.887,10.2875 C716.691,10.2875 920.817,214.413 920.817,466.208 C920.817,718.009 716.691,922.133 464.887,922.133 C213.088,922.133 8.9625,718.009 8.9625,466.208 C8.9625,214.413 213.088,10.2875 464.887,10.2875 "/>
</g>

<g fill="#18c39b" fill-opacity="1" stroke="none" transform="matrix(0.0548333,0,0,-0.0548338,-0.491443,50.5641)"
font-family="Inter" font-size="10" font-weight="400" font-style="normal" 
>
<path vector-effect="none" fill-rule="evenodd" d="M464.887,49.0625 C695.275,49.0625 882.037,235.829 882.037,466.208 C882.037,696.596 695.275,883.358 464.887,883.358 C234.505,883.358 47.7417,696.596 47.7417,466.208 C47.7417,235.829 234.505,49.0625 464.887,49.0625 "/>
</g>

<g fill="#fefefe" fill-opacity="1" stroke="none" transform="matrix(0.0548333,0,0,0.0548338,-0.491443,50.5641)"
font-family="Inter" font-size="10" font-weight="400" font-style="normal" 
>
<path vector-effect="none" fill-rule="evenodd" d="M160.183,-477.499 C160.183,-503.58 181.326,-524.722 207.407,-524.722 L722.369,-524.722 C748.45,-524.722 769.592,-503.58 769.592,-477.499 C769.592,-451.419 748.45,-430.276 722.369,-430.276 L207.407,-430.276 C181.326,-430.276 160.183,-451.419 160.183,-477.499 "/>
</g>

<g fill="none" stroke="#000000" stroke-opacity="1" stroke-width="1" stroke-linecap="square" stroke-linejoin="bevel" transform="matrix(1,0,0,1,0,0)"
font-family="Inter" font-size="10" font-weight="400" font-style="normal" 
>
</g>
</g>
</svg>
